<svg width="107" height="31" viewBox="0 0 107 31" fill="none" xmlns="http://www.w3.org/2000/svg">
<path d="M81.8981 14.6252L104.852 14.9464" stroke="black" stroke-width="3" stroke-linecap="round"/>
<path d="M82.0464 22.9315L105 23.2527" stroke="black" stroke-width="3" stroke-linecap="round"/>
<path d="M81.8981 14.6252L104.852 14.9464" stroke="black" stroke-width="3" stroke-linecap="round"/>
<path d="M82.0464 22.9315L105 23.2527" stroke="black" stroke-width="3" stroke-linecap="round"/>
<path d="M82.0464 6.55185L105 6.87309" stroke="black" stroke-width="3" stroke-linecap="round"/>
<path d="M66.7916 21.1778C65.7335 21.1776 64.7074 21.5353 63.8843 22.1912C63.0613 22.8471 62.4911 23.7615 62.2689 24.7819L54.0701 20.2435C54.6228 19.4729 54.9197 18.5522 54.9197 17.6083C54.9197 16.6643 54.6228 15.7436 54.0701 14.9731L62.2689 10.4326C62.5139 11.5598 63.1825 12.5537 64.1401 13.2145C65.0978 13.8753 66.2736 14.154 67.4311 13.9946C68.5886 13.8351 69.642 13.2494 70.3795 12.3551C71.117 11.4608 71.4839 10.3243 71.4065 9.17403C71.3291 8.02376 70.8132 6.94504 69.9623 6.15473C69.1114 5.36442 67.9888 4.92113 66.8201 4.91397C65.6514 4.90681 64.5233 5.33632 63.6626 6.11614C62.8018 6.89597 62.2723 7.96829 62.1804 9.11752L53.2255 14.0765C52.5476 13.5302 51.7266 13.1848 50.8577 13.0804C49.9888 12.9761 49.1077 13.1171 48.3168 13.4871C47.5259 13.8571 46.8577 14.4408 46.3898 15.1705C45.9218 15.9002 45.6735 16.7459 45.6735 17.6093C45.6735 18.4727 45.9218 19.3184 46.3898 20.048C46.8577 20.7777 47.5259 21.3615 48.3168 21.7315C49.1077 22.1014 49.9888 22.2424 50.8577 22.1381C51.7266 22.0338 52.5476 21.6884 53.2255 21.1421L62.1804 26.101C62.2516 26.9852 62.5825 27.8297 63.1326 28.5313C63.6827 29.2328 64.4282 29.761 65.2779 30.0512C66.1276 30.3414 67.0446 30.381 67.9168 30.1651C68.7889 29.9493 69.5784 29.4874 70.1886 28.8359C70.7987 28.1844 71.2032 27.3717 71.3524 26.497C71.5016 25.6224 71.3891 24.7238 71.0287 23.9113C70.6682 23.0987 70.0755 22.4074 69.323 21.9219C68.5705 21.4364 67.6908 21.1778 66.7916 21.1778ZM66.7916 6.10246C67.4678 6.10246 68.1288 6.30023 68.691 6.67076C69.2532 7.0413 69.6913 7.56795 69.9501 8.18412C70.2088 8.80029 70.2765 9.47831 70.1446 10.1324C70.0127 10.7866 69.6871 11.3874 69.209 11.859C68.7309 12.3306 68.1217 12.6518 67.4586 12.7819C66.7954 12.912 66.108 12.8452 65.4834 12.59C64.8587 12.3348 64.3247 11.9025 63.9491 11.348C63.5734 10.7935 63.3729 10.1415 63.3729 9.47457C63.3729 8.58023 63.7331 7.72252 64.3743 7.09013C65.0154 6.45774 65.8849 6.10246 66.7916 6.10246ZM47.8883 19.9876C47.3091 19.3448 47.0008 18.508 47.0265 17.6483C47.0521 16.7887 47.4098 15.9712 48.0263 15.3631C48.6428 14.755 49.4716 14.4022 50.3431 14.3769C51.2146 14.3516 52.0629 14.6557 52.7147 15.227C53.2938 15.8698 53.6021 16.7066 53.5765 17.5663C53.5508 18.4259 53.1932 19.2434 52.5766 19.8515C51.9601 20.4596 51.1314 20.8124 50.2599 20.8377C49.3884 20.863 48.54 20.5589 47.8883 19.9876ZM66.7916 29.1121C66.1155 29.1121 65.4545 28.9144 64.8923 28.5438C64.3301 28.1733 63.8919 27.6466 63.6332 27.0305C63.3744 26.4143 63.3067 25.7363 63.4386 25.0822C63.5705 24.428 63.8961 23.8272 64.3743 23.3556C64.8524 22.884 65.4615 22.5628 66.1247 22.4327C66.7878 22.3026 67.4752 22.3694 68.0999 22.6246C68.7246 22.8798 69.2585 23.312 69.6342 23.8666C70.0098 24.4211 70.2103 25.0731 70.2103 25.74C70.2103 26.6344 69.8501 27.4921 69.209 28.1245C68.5679 28.7569 67.6983 29.1121 66.7916 29.1121Z" fill="black"/>
<path d="M30.7258 17.6763L15.3629 0L0 17.6763H3.84072V30.3023H11.5222V20.2015H19.2036V30.3023H26.8851V17.6763H30.7258Z" fill="black"/>
</svg>
